HIERARCHY
ROOT Pelvis
{
	OFFSET 0.000000 0.000000 0.000000
	CHANNELS 6 Xposition Yposition Zposition Xrotation Yrotation Zrotation
	JOINT LeftUpLeg_virtual
	{
		OFFSET 0.000000 0.000000 0.000000
		CHANNELS 3 Xrotation Yrotation Zrotation
		JOINT LeftUpLeg
		{
			OFFSET 18.735201 -5.666702 -4.541200
			CHANNELS 3 Xrotation Yrotation Zrotation
			JOINT LeftLeg
			{
				OFFSET -0.021200 -31.938179 0.493100
				CHANNELS 3 Xrotation Yrotation Zrotation
				JOINT LeftFoot
				{
					OFFSET 0.021200 -31.938179 -4.336299
					CHANNELS 3 Xrotation Yrotation Zrotation
					JOINT LeftToeBase
					{
						OFFSET 0.943001 -26.722000 15.023500
						CHANNELS 3 Xrotation Yrotation Zrotation
						End Site
						{
							OFFSET 0 0 0
						}
					}
				}
			}
		}
	}
	JOINT RightUpLeg_virtual
	{
		OFFSET 0.000000 0.000000 0.000000
		CHANNELS 3 Xrotation Yrotation Zrotation
		JOINT RightUpLeg
		{
			OFFSET -18.735201 -5.666702 -4.541200
			CHANNELS 3 Xrotation Yrotation Zrotation
			JOINT RightLeg
			{
				OFFSET 0.018946 -31.938133 0.493100
				CHANNELS 3 Xrotation Yrotation Zrotation
				JOINT RightFoot
				{
					OFFSET -0.018946 -31.938126 -4.336299
					CHANNELS 3 Xrotation Yrotation Zrotation
					JOINT RightToeBase
					{
						OFFSET -0.943001 -26.722004 15.023500
						CHANNELS 3 Xrotation Yrotation Zrotation
						End Site
						{
							OFFSET 0 0 0
						}
					}
				}
			}
		}
	}
	JOINT Hips_virtual
	{
		OFFSET 0.000000 0.000000 0.000000
		CHANNELS 3 Xrotation Yrotation Zrotation
		JOINT Hips
		{
			OFFSET -0.000000 -0.000000 -0.000000
			CHANNELS 3 Xrotation Yrotation Zrotation
			JOINT Spine
			{
				OFFSET 0.000000 10.199997 -0.299500
				CHANNELS 3 Xrotation Yrotation Zrotation
				JOINT Spine1
				{
					OFFSET 0.000000 11.900002 -1.516600
					CHANNELS 3 Xrotation Yrotation Zrotation
					JOINT Spine2
					{
						OFFSET 0.000000 13.600006 -2.842500
						CHANNELS 3 Xrotation Yrotation Zrotation
						JOINT Neck_virtual
						{
							OFFSET 0.000000 0.000000 0.000000
							CHANNELS 3 Xrotation Yrotation Zrotation
							JOINT Neck
							{
								OFFSET 0.000000 9.624100 -2.890100
								CHANNELS 3 Xrotation Yrotation Zrotation
								JOINT Head
								{
									OFFSET 0.000000 14.068802 -1.351900
									CHANNELS 3 Xrotation Yrotation Zrotation
									End Site
									{
										OFFSET 0 0 0
									}
								}
							}
						}
						JOINT LeftShoulder_virtual
						{
							OFFSET 0.000000 0.000000 0.000000
							CHANNELS 3 Xrotation Yrotation Zrotation
							JOINT LeftShoulder
							{
								OFFSET 15.263000 10.923401 -0.547700
								CHANNELS 3 Xrotation Yrotation Zrotation
								JOINT LeftArm
								{
									OFFSET 25.438599 -2.830597 -13.032500
									CHANNELS 3 Xrotation Yrotation Zrotation
									JOINT LeftForeArm
									{
										OFFSET 29.960503 0.000000 0.000000
										CHANNELS 3 Xrotation Yrotation Zrotation
										JOINT LeftHand
										{
											OFFSET 27.849251 0.000000 0.000000
											CHANNELS 3 Xrotation Yrotation Zrotation
											End Site
											{
												OFFSET 0 0 0
											}
										}
									}
								}
							}
						}
						JOINT RightShoulder_virtual
						{
							OFFSET 0.000000 0.000000 0.000000
							CHANNELS 3 Xrotation Yrotation Zrotation
							JOINT RightShoulder
							{
								OFFSET -15.263000 10.923401 -0.547700
								CHANNELS 3 Xrotation Yrotation Zrotation
								JOINT RightArm
								{
									OFFSET -25.438599 -2.830597 -13.032500
									CHANNELS 3 Xrotation Yrotation Zrotation
									JOINT RightForeArm
									{
										OFFSET -29.960503 0.000000 0.000000
										CHANNELS 3 Xrotation Yrotation Zrotation
										JOINT RightHand
										{
											OFFSET -27.849251 0.000000 0.000000
											CHANNELS 3 Xrotation Yrotation Zrotation
											End Site
											{
												OFFSET 0 0 0
											}
										}
									}
								}
							}
						}
					}
				}
			}
		}
	}
}
MOTION
Frames: 9
Frame Time: 0.03333333
1.870077 94.432350 1.836289 0.000000 0.000000 0.000000 11.435519 -3.263865 -2.400759 -25.297337 11.761022 13.354094 31.941649 -3.213504 -0.397124 -15.561922 -2.834930 -7.668545 0.000000 0.000000 0.000000 6.447975 7.234471 4.416376 -20.167863 -4.020116 -8.801201 28.294308 1.780810 -3.704005 -19.202831 -0.346222 5.686656 0.000000 0.000000 0.000000 -0.394146 -0.266028 0.269479 1.603213 9.836546 -1.010423 7.488187 -0.493587 0.968602 2.298330 0.094829 0.718590 0.000000 0.000000 0.000000 0.460610 -0.242481 -0.283264 -1.616166 -0.283312 -0.243501 0.000000 0.000000 0.000000 0.204248 -0.078366 -0.230133 -0.500540 -7.106353 -8.103463 4.773425 -0.285870 -59.121441 4.089859 -30.081444 -6.142750 0.000000 0.000000 0.000000 0.900926 -0.186276 -0.176971 -0.323257 6.575670 5.559631 13.892531 8.342478 52.864305 8.799360 38.552436 2.329960 0.000000 0.000000 0.000000 
1.934983 94.440796 1.901123 0.000000 0.000000 0.000000 11.488481 -3.256381 -2.438682 -25.204247 11.783726 13.301413 31.775328 -3.187494 -0.382381 -15.695826 -2.806408 -7.631460 0.000000 0.000000 0.000000 6.481654 7.239194 4.435528 -20.114528 -4.027919 -8.772521 28.344587 1.812373 -3.731057 -19.181241 -0.296426 5.657198 0.000000 0.000000 0.000000 -0.414770 -0.276199 0.277693 1.494723 10.025162 -0.968384 7.590615 -0.527957 0.957221 2.342871 0.097649 0.735641 0.000000 0.000000 0.000000 0.463207 -0.242043 -0.285147 -1.614086 -0.286023 -0.250818 0.000000 0.000000 0.000000 0.180659 -0.086347 -0.213295 -0.497272 -7.137746 -8.089476 4.933279 -0.148456 -59.170557 4.150150 -29.854241 -6.175647 0.000000 0.000000 0.000000 0.845501 -0.167015 -0.190665 -0.344623 6.574795 5.548075 13.966936 8.374325 52.983830 8.831458 38.528137 2.366592 0.000000 0.000000 0.000000 
2.059848 94.458946 2.024523 0.000000 0.000000 0.000000 11.588039 -3.231306 -2.509120 -25.032425 11.828493 13.206172 31.479273 -3.138283 -0.354543 -15.935101 -2.753020 -7.561751 0.000000 0.000000 0.000000 6.550370 7.250652 4.463213 -20.007998 -4.040914 -8.727058 28.432940 1.875449 -3.772970 -19.145920 -0.204611 5.619705 0.000000 0.000000 0.000000 -0.453741 -0.300938 0.297359 1.281796 10.382358 -0.881692 7.771785 -0.583930 0.939475 2.424534 0.102005 0.766614 0.000000 0.000000 0.000000 0.470911 -0.239000 -0.286885 -1.608520 -0.291312 -0.263864 0.000000 0.000000 0.000000 0.137459 -0.101020 -0.181679 -0.493984 -7.198869 -8.058674 5.209251 0.114608 -59.253278 4.246299 -29.460552 -6.239464 0.000000 0.000000 0.000000 0.746804 -0.131830 -0.215153 -0.384402 6.564212 5.525877 14.093147 8.435666 53.206979 8.891998 38.484981 2.434303 0.000000 0.000000 0.000000 
2.235920 94.487053 2.195488 0.000000 0.000000 0.000000 11.721956 -3.173890 -2.603076 -24.808340 11.893557 13.085240 31.112765 -3.071104 -0.316680 -16.233466 -2.681181 -7.467593 0.000000 0.000000 0.000000 6.653678 7.270582 4.481919 -19.852141 -4.054879 -8.684802 28.541754 1.968774 -3.811310 -19.107282 -0.083569 5.605851 0.000000 0.000000 0.000000 -0.505171 -0.344518 0.333244 0.979759 10.870818 -0.751517 7.995117 -0.641508 0.923066 2.530097 0.105653 0.806715 0.000000 0.000000 0.000000 0.487133 -0.230397 -0.285330 -1.597761 -0.299086 -0.279993 0.000000 0.000000 0.000000 0.080930 -0.120269 -0.138901 -0.495734 -7.287035 -8.009450 5.528048 0.485691 -59.346312 4.338042 -28.996089 -6.330489 0.000000 0.000000 0.000000 0.625287 -0.086513 -0.245799 -0.437046 6.529684 5.494947 14.235515 8.521592 53.504335 8.973882 38.431538 2.522392 0.000000 0.000000 0.000000 
2.452511 94.521942 2.400774 0.000000 0.000000 0.000000 11.874075 -3.073283 -2.710884 -24.565129 11.975516 12.956569 30.737634 -2.992569 -0.272721 -16.542559 -2.598443 -7.359140 0.000000 0.000000 0.000000 6.785964 7.298852 4.473093 -19.658008 -4.065204 -8.667585 28.657100 2.088423 -3.829711 -19.071476 0.052847 5.642148 0.000000 0.000000 0.000000 -0.558620 -0.405174 0.389141 0.622613 11.441159 -0.589971 8.226365 -0.681544 0.915080 2.643465 0.106100 0.851495 0.000000 0.000000 0.000000 0.514007 -0.214296 -0.277531 -1.581231 -0.309368 -0.296318 0.000000 0.000000 0.000000 0.017637 -0.141686 -0.089257 -0.507292 -7.398008 -7.946336 5.809545 0.947571 -59.428916 4.382858 -28.553990 -6.443861 0.000000 0.000000 0.000000 0.503602 -0.037937 -0.277679 -0.495298 6.457125 5.458609 14.357467 8.624150 53.837658 9.066665 38.377050 2.616246 0.000000 0.000000 0.000000 
2.699077 94.556229 2.627748 0.000000 0.000000 0.000000 12.028312 -2.930400 -2.824991 -24.334096 12.069181 12.833384 30.401486 -2.909060 -0.226555 -16.824742 -2.511673 -7.246019 0.000000 0.000000 0.000000 6.936178 7.335043 4.422841 -19.442924 -4.067636 -8.692477 28.774194 2.227231 -3.819932 -19.036586 0.192961 5.739022 0.000000 0.000000 0.000000 -0.600903 -0.471809 0.465659 0.262171 12.038799 -0.421272 8.444688 -0.692235 0.919365 2.749187 0.101526 0.898305 0.000000 0.000000 0.000000 0.550915 -0.190849 -0.261847 -1.560240 -0.322042 -0.310479 0.000000 0.000000 0.000000 -0.046579 -0.162848 -0.036781 -0.531380 -7.523758 -7.881724 5.988835 1.484109 -59.490271 4.349382 -28.195612 -6.574220 0.000000 0.000000 0.000000 0.400492 0.007281 -0.306465 -0.551548 6.338061 5.422523 14.429044 8.731851 54.166221 9.156628 38.330906 2.699580 0.000000 0.000000 0.000000 
2.966901 94.580223 2.867311 0.000000 0.000000 0.000000 12.174129 -2.761589 -2.941313 -24.134893 12.168154 12.720571 30.130755 -2.825149 -0.180986 -17.058247 -2.425790 -7.134785 0.000000 0.000000 0.000000 7.091461 7.381905 4.325546 -19.224758 -4.058521 -8.767030 28.896457 2.375566 -3.783045 -18.994193 0.328543 5.889269 0.000000 0.000000 0.000000 -0.621068 -0.527049 0.559227 -0.043732 12.613058 -0.274468 8.644733 -0.671094 0.935748 2.835623 0.091468 0.946528 0.000000 0.000000 0.000000 0.594590 -0.162119 -0.238380 -1.537555 -0.336411 -0.321071 0.000000 0.000000 0.000000 -0.106487 -0.181250 0.015546 -0.567957 -7.650298 -7.832461 6.030543 2.074641 -59.531300 4.225960 -27.941903 -6.716084 0.000000 0.000000 0.000000 0.326886 0.043806 -0.328640 -0.599420 6.173042 5.395003 14.427936 8.830179 54.453226 9.227649 38.303072 2.757258 0.000000 0.000000 0.000000 
3.249627 94.585335 3.116384 0.000000 0.000000 0.000000 12.310933 -2.596631 -3.058528 -23.968421 12.265728 12.614799 29.933639 -2.742813 -0.136876 -17.234748 -2.343580 -7.027334 0.000000 0.000000 0.000000 7.242566 7.446873 4.184651 -19.014502 -4.035213 -8.887824 29.029899 2.523005 -3.726297 -18.934451 0.454209 6.074431 0.000000 0.000000 0.000000 -0.615999 -0.556071 0.662458 -0.249647 13.126897 -0.171869 8.830869 -0.622491 0.961049 2.896804 0.076812 0.996751 0.000000 0.000000 0.000000 0.640594 -0.131040 -0.208715 -1.516105 -0.350970 -0.327616 0.000000 0.000000 0.000000 -0.157217 -0.194236 0.066178 -0.614654 -7.758810 -7.812678 5.931467 2.686793 -59.562330 4.021935 -27.784646 -6.864028 0.000000 0.000000 0.000000 0.285029 0.068273 -0.341565 -0.635079 5.972142 5.385834 14.337786 8.904342 54.670067 9.263745 38.304097 2.777629 0.000000 0.000000 0.000000 
3.542677 94.567276 3.378951 0.000000 0.000000 0.000000 12.448613 -2.471458 -3.175852 -23.816426 12.355808 12.508169 29.808141 -2.661688 -0.092866 -17.353393 -2.266362 -6.920853 0.000000 0.000000 0.000000 7.387390 7.538966 4.010845 -18.812404 -3.997019 -9.042599 29.177667 2.659857 -3.658429 -18.850714 0.565857 6.273623 0.000000 0.000000 0.000000 -0.592623 -0.556511 0.765547 -0.338138 13.564391 -0.120202 9.008954 -0.553154 0.991234 2.932351 0.059212 1.049523 0.000000 0.000000 0.000000 0.685162 -0.100408 -0.175157 -1.497671 -0.363774 -0.330181 0.000000 0.000000 0.000000 -0.194690 -0.199260 0.114967 -0.667865 -7.830315 -7.826581 5.713524 3.274904 -59.598967 3.762203 -27.705247 -7.012975 0.000000 0.000000 0.000000 0.270343 0.079709 -0.343855 -0.658084 5.753265 5.403352 14.148137 8.943800 54.797235 9.253188 38.343070 2.753521 0.000000 0.000000 0.000000 
